<svg width="72" height="72" viewBox="0 0 72 72" fill="none" xmlns="http://www.w3.org/2000/svg">
<g id="Wesite">
<circle id="Ellipse" cx="36.06" cy="35.8959" r="35.8959" fill="white"/>
<path id="Vector" d="M49.8659 36.5863C49.8659 28.5805 43.3752 22.0898 35.3695 22.0898C27.3637 22.0898 20.873 28.5805 20.873 36.5863C20.873 44.592 27.3637 51.0827 35.3695 51.0827C43.3752 51.0827 49.8659 44.592 49.8659 36.5863Z" stroke="#CDA274" stroke-width="2" stroke-miterlimit="10"/>
<path id="Vector_2" d="M49.1033 30.8305C47.9815 30.8375 48.0918 32.9193 46.6941 31.9371C46.1751 31.5731 45.8559 31.0441 45.2042 30.8832C44.6349 30.7427 44.0517 30.8888 43.4894 30.9865C42.8502 31.0975 42.0924 31.1474 41.6076 31.6343C41.1389 32.1029 40.8909 32.7317 40.3922 33.2032C39.4275 34.1165 39.0203 35.1135 39.6448 36.4049C40.2455 37.6464 41.5021 38.3202 42.8579 38.2316C44.19 38.1424 45.5737 37.3653 45.5353 39.3122C45.5213 40.0008 45.6645 40.4786 45.8748 41.1186C46.0697 41.7088 46.0564 42.2807 46.1011 42.8899C46.1835 44.0281 46.3917 45.304 46.9533 46.3094L48.001 44.8227C48.1303 44.6386 48.4006 44.3808 48.4648 44.1637C48.5787 43.7794 48.3545 43.1189 48.3286 42.6882C48.3028 42.2575 48.3154 41.8212 48.2497 41.3905C48.1575 40.787 47.8027 40.2214 47.7538 39.6249C47.6636 38.5141 47.8655 37.6274 47.0147 36.6986C46.1933 35.8028 44.9891 35.5878 43.8386 35.7697C43.2589 35.8611 40.9251 36.2363 41.8618 34.9034C42.047 34.6414 42.3704 34.4264 42.5785 34.177C42.7594 33.9599 42.9166 33.5608 43.1289 33.3915C43.3413 33.2221 44.3164 33.0275 44.5958 33.1139C44.8752 33.2003 45.1665 33.6057 45.4089 33.7856C45.8567 34.1249 46.3793 34.3505 46.9323 34.4432C47.8865 34.5838 49.8814 34.0259 49.866 32.7949C49.8632 32.2048 49.3184 31.3827 49.1033 30.8305ZM38.0585 40.9591C37.6862 39.3825 35.5564 38.8556 34.4081 38.0005C33.748 37.5087 33.1605 36.7492 32.2937 36.6873C31.8941 36.6585 31.5596 36.7457 31.1635 36.6424C30.8003 36.5482 30.5153 36.3515 30.1283 36.4028C29.4054 36.4983 28.9492 37.2754 28.1725 37.17C27.4356 37.0703 26.6763 36.2032 26.5087 35.4971C26.2935 34.5894 27.0074 34.295 27.7723 34.2142C28.0915 34.1805 28.4498 34.1439 28.7565 34.2613C29.1602 34.4123 29.3509 34.81 29.7134 35.0109C30.3931 35.3854 30.5307 34.7868 30.4266 34.1798C30.2708 33.2706 30.0892 32.8996 30.8953 32.2743C31.4541 31.8429 31.9319 31.531 31.8425 30.756C31.7894 30.3007 31.5414 30.0949 31.7726 29.6417C31.9479 29.2967 32.4292 28.9855 32.7428 28.7796C33.5524 28.2484 36.2109 28.2878 35.1247 26.8011C34.8055 26.3648 34.2167 25.5849 33.6579 25.4781C32.9594 25.3453 32.6492 26.1294 32.1624 26.4751C31.6594 26.8327 30.6801 27.2388 30.1765 26.6859C29.499 25.9418 30.6257 25.6973 30.875 25.1781C31.1244 24.6589 30.2974 23.6773 29.8545 23.4286L27.7723 25.7774C27.7124 26.1708 27.7333 26.5723 27.8334 26.9572C27.9336 27.3422 28.1111 27.7024 28.3548 28.0159C28.769 28.552 29.4284 28.7241 29.4585 29.4562C29.4878 30.1588 29.3788 30.5185 28.922 31.0125C28.7243 31.2232 28.5846 31.5225 28.3834 31.72C28.1369 31.961 28.2284 31.8872 27.8435 31.9532C27.1198 32.0762 26.5038 32.2659 25.8046 32.4598C24.6394 32.7837 24.5319 30.8691 24.001 30.118L22.2547 31.5366C22.2359 31.7692 22.5411 32.197 22.6243 32.45C23.1013 33.8952 24.0639 35.013 24.6855 36.3958C25.3401 37.86 27.0975 37.4539 27.8735 38.7368C28.5623 39.875 27.8267 41.3161 28.3422 42.5077C28.7166 43.3726 29.5995 43.5616 30.2086 44.1939C30.831 44.8326 30.8177 45.7066 30.9127 46.5378C31.0199 47.5154 31.1937 48.4845 31.4331 49.4381C31.5177 49.7676 31.5952 50.2032 31.8194 50.4751C31.9731 50.662 32.5005 50.8229 32.2874 50.8847C32.585 50.9339 33.1151 51.2136 33.3631 51.0084C33.69 50.7386 33.6027 49.9081 33.6593 49.5329C33.829 48.4158 34.385 47.3233 35.1352 46.4872C35.8763 45.6623 36.892 45.1038 37.5178 44.1686C38.1276 43.2566 38.3113 42.0264 38.0585 40.9591ZM35.7262 42.8084C35.3071 43.5609 34.3738 44.0646 33.7738 44.6625C33.6111 44.8248 33.2646 45.3869 33.0607 45.2654C32.9147 45.1782 32.8651 44.4489 32.8113 44.2817C32.5338 43.4397 32.0041 42.7046 31.2948 42.1774C31.0762 42.0109 30.5342 41.7945 30.4091 41.5662C30.2694 41.3182 30.3951 40.7329 30.4 40.4631C30.4077 40.0696 30.2296 39.4155 30.326 39.0579C30.4378 38.6455 30.2226 38.8942 30.5893 38.8127C30.7828 38.7691 31.5819 38.9104 31.8229 38.9609C32.2057 39.041 32.4166 39.2806 32.7184 39.523C33.5119 40.1631 34.3857 40.6584 35.2749 41.1488C35.9637 41.5325 36.1662 42.0179 35.7262 42.8084ZM30.8645 23.4497C31.1956 23.775 31.5072 24.16 32.001 24.1923C32.4683 24.224 32.9091 23.9696 33.317 24.2893C33.7696 24.6406 34.0958 25.0853 34.6966 25.1949C35.2777 25.301 35.8931 24.9596 36.037 24.3617C36.1767 23.7919 35.8756 23.1722 35.8575 22.6002C35.8575 22.5209 35.9001 22.1681 35.8456 22.1084C35.8051 22.0635 35.467 22.114 35.4153 22.1155C35.0367 22.1267 34.6591 22.1529 34.2823 22.1941C32.909 22.3437 31.5639 22.6903 30.2883 23.2235C30.458 23.3415 30.6711 23.3886 30.8645 23.4497ZM42.8747 27.3969C43.4677 27.3969 44.0698 27.1299 43.8784 26.4399C43.7178 25.8617 43.444 25.2343 42.7776 25.5462C42.3536 25.7444 41.7529 26.2488 41.7033 26.7491C41.6467 27.3168 42.4793 27.3969 42.8747 27.3969ZM42.4011 30.4159C43.0067 30.7806 43.905 30.6092 44.3618 30.0885C44.7187 29.681 44.929 28.9735 45.5709 28.9742C45.8535 28.9736 46.125 29.0849 46.3267 29.2841C46.5921 29.5602 46.5398 29.8194 46.5963 30.1651C46.7228 30.9415 47.5505 30.2094 47.7663 29.9087C47.906 29.7126 48.0953 29.4218 48.0318 29.1667C47.9731 28.9285 47.6965 28.6749 47.5735 28.4564C47.2145 27.8241 46.919 27.0884 46.3812 26.5777C45.8636 26.0858 45.2273 26.1427 44.7362 26.6535C44.3339 27.0751 43.8666 27.4088 43.5914 27.9217C43.3972 28.2822 43.1785 28.4543 42.7853 28.5477C42.5687 28.599 42.3215 28.618 42.1399 28.7641C41.6341 29.1646 41.9219 30.1265 42.4011 30.4159Z" fill="#CDA274"/>
</g>
</svg>
